<svg width="21" height="21" viewBox="0 0 21 21" fill="none" xmlns="http://www.w3.org/2000/svg">
<path d="M20 4V3H19V2H18V1H4V2H3V3H2V4H1V14H2V15H3V16H4V17H5V21H9V20H10V19H11V18H12V17H18V16H19V15H20V14H21V4H20ZM19 12H18V13H17V14H16V15H11V16H10V17H9V18H8V19H7V15H6V14H5V13H4V12H3V6H4V5H5V4H6V3H16V4H17V5H18V6H19V12Z" fill="white"/>
<path d="M19 3V2H18V1H17V0H3V1H2V2H1V3H0V13H1V14H2V15H3V16H4V20H8V19H9V18H10V17H11V16H17V15H18V14H19V13H20V3H19ZM18 11H17V12H16V13H15V14H10V15H9V16H8V17H7V18H6V14H5V13H4V12H3V11H2V5H3V4H4V3H5V2H15V3H16V4H17V5H18V11Z" fill="#EA52B3"/>
</svg>
