<svg width="17" height="15" viewBox="0 0 17 15" fill="none" xmlns="http://www.w3.org/2000/svg">
<path d="M8 15V14H7V13H6V12H5V11H4V10H3V9H2V8H1V3H2V1H3V0H7V1H8V3H10V1H11V0H15V1H16V3H17V8H16V9H15V10H14V11H13V12H12V13H11V14H10.5V13.5H10V13H11V12H12V11H13V10H14V9H15V8H16V3H15V1H11V3H10V4H8V3H7V1H3V3H2V8H3V9H4V10H5V11H6V12H7V13H8V14H10V15H8Z" fill="white"/>
<path d="M10 13.5V14H10.5V13.5H10Z" fill="white"/>
<path d="M7 15V14H6V13H5V12H4V11H3V10H2V9H1V8H0V3H1V1H2V0H6V1H7V3H9V1H10V0H14V1H15V3H16V8H15V9H14V10H13V11H12V12H11V13H10V14H9.5V13.5H9V13H10V12H11V11H12V10H13V9H14V8H15V3H14V1H10V3H9V4H7V3H6V1H2V3H1V8H2V9H3V10H4V11H5V12H6V13H7V14H9V15H7Z" fill="#EA52B3"/>
<path d="M9 13.5V14H9.5V13.5H9Z" fill="#EA52B3"/>
</svg>
