<svg width="19" height="15" viewBox="0 0 19 15" fill="none" xmlns="http://www.w3.org/2000/svg">
<path d="M3 1H1V3H3V1Z" fill="white"/>
<path d="M3 5H1V7H3V5Z" fill="white"/>
<path d="M3 9H1V11H3V9Z" fill="white"/>
<path d="M3 13H1V15H3V13Z" fill="white"/>
<path d="M19 1H4V3H19V1Z" fill="white"/>
<path d="M19 5H4V7H19V5Z" fill="white"/>
<path d="M19 9H4V11H19V9Z" fill="white"/>
<path d="M19 13H4V15H19V13Z" fill="white"/>
<path d="M2 0H0V2H2V0Z" fill="#EA52B3"/>
<path d="M2 4H0V6H2V4Z" fill="#EA52B3"/>
<path d="M2 8H0V10H2V8Z" fill="#EA52B3"/>
<path d="M2 12H0V14H2V12Z" fill="#EA52B3"/>
<path d="M18 0H3V2H18V0Z" fill="#EA52B3"/>
<path d="M18 4H3V6H18V4Z" fill="#EA52B3"/>
<path d="M18 8H3V10H18V8Z" fill="#EA52B3"/>
<path d="M18 12H3V14H18V12Z" fill="#EA52B3"/>
</svg>
