<svg width="24" height="24" viewBox="0 0 24 24" fill="none" xmlns="http://www.w3.org/2000/svg">
<g clip-path="url(#clip0_42_20)">
<path d="M18 12H19V11H20V5H19V4H18V3H17H16V6H17V7H18V8V9H17V10H16V13H18V12Z" fill="#EA52B3"/>
<path d="M21 16V15H20V14H18V17H19V18H20V21H22V16H21Z" fill="#EA52B3"/>
<path d="M3 7H4V9H6V11H-6V13H6V15H4V17H3V19H6V17H8V15H10V14H11V13H12V11H11V10H10V9H8V7H6V5H3V7Z" fill="#EA52B3"/>
</g>
<defs>
<clipPath id="clip0_42_20">
<rect width="24" height="24" fill="white"/>
</clipPath>
</defs>
</svg>
