<svg width="17" height="19" viewBox="0 0 17 19" fill="none" xmlns="http://www.w3.org/2000/svg">
<path d="M5 10H6V11H12V10H13V9H14V3H13V2H12V1H6V2H5V3H4V9H5V10ZM6 5H7V4H8V3H10V4H11V5H12V7H11V8H10V9H8V8H7V7H6V5Z" fill="white"/>
<path d="M16 14V13H15V12H3V13H2V14H1V19H3V16H4V15H5V14H13V15H14V16H15V19H17V14H16Z" fill="white"/>
<path d="M4 9H5V10H11V9H12V8H13V2H12V1H11V0H5V1H4V2H3V8H4V9ZM5 4H6V3H7V2H9V3H10V4H11V6H10V7H9V8H7V7H6V6H5V4Z" fill="#EA52B3"/>
<path d="M15 13V12H14V11H2V12H1V13H0V18H2V15H3V14H4V13H12V14H13V15H14V18H16V13H15Z" fill="#EA52B3"/>
</svg>
