<svg width="20" height="20" viewBox="0 0 20 20" fill="none" xmlns="http://www.w3.org/2000/svg">
<path d="M2.66663 2.66663V5.33329H3.99996V3.99996H5.33329V2.66663H2.66663Z" fill="#EA52B3"/>
<path d="M5.33333 5.33333V4H6.66667V2.66667H8V0H12V2.66667H13.3333V4H14.6667V2.66667H17.3333V5.33333H16V4H14.6667V5.33333H13.3333V4H10.6667V1.33333H9.33333V4H6.66667V5.33333H5.33333V6.66667H4V8V9.33333H1.33333V10.6667H4V13.3333H2.66667V12H1.33333H0V8H1.33333H2.66667V6.66667H4V5.33333H5.33333Z" fill="#EA52B3"/>
<path d="M2.66667 14.6667H4V16H5.33333V17.3333H2.66667V14.6667Z" fill="#EA52B3"/>
<path d="M6.66667 17.3333V16H9.33333V18.6667H10.6667V16H13.3333V17.3333H12V20H8V17.3333H6.66667Z" fill="#EA52B3"/>
<path d="M14.6667 17.3333V16H16V14.6667H17.3333V17.3333H14.6667Z" fill="#EA52B3"/>
<path d="M16 10.6667V13.3333H17.3333V12H20V8H17.3333V6.66667H16V9.33333H18.6667V10.6667H16Z" fill="#EA52B3"/>
<path d="M8 8V6.66667H12V8H13.3333V12H12V13.3333H8V12H12V8H8Z" fill="#EA52B3"/>
<path d="M6.66667 12V8.00004H8V12H6.66667Z" fill="#EA52B3"/>
<path d="M4 14.6667V13.3334H5.33333V14.6667H6.66667V16H5.33333V14.6667H4Z" fill="#EA52B3"/>
<path d="M13.3333 16V14.6667H14.6667V13.3334H16V14.6667H14.6667V16H13.3333Z" fill="#EA52B3"/>
<path d="M14.6667 6.66671V5.33337H16V6.66671H14.6667Z" fill="#EA52B3"/>
</svg>
